<svg id="checked_4_копия" data-name="checked (4) копия" xmlns="http://www.w3.org/2000/svg" width="10.994" height="8.993" viewBox="0 0 10.994 8.993">
  <g id="checked_4_копия-2" data-name="checked (4) копия" transform="translate(0 -0.007)">
    <path id="Forma_1" data-name="Forma 1" d="M.127,4.953a.454.454,0,0,1,0-.63l.592-.63a.392.392,0,0,1,.592,0l.042.045L3.679,6.392a.2.2,0,0,0,.3,0L9.641.142h.042a.392.392,0,0,1,.592,0l.592.63a.454.454,0,0,1,0,.63h0L4.1,8.865a.392.392,0,0,1-.592,0L.211,5.088Z"/>
  </g>
  <path id="Color_Overlay" data-name="Color Overlay" d="M471.509,2090.865l-3.3-3.777-.085-.134a.455.455,0,0,1,0-.63l.592-.629a.391.391,0,0,1,.591,0l.042.045,2.326,2.652a.2.2,0,0,0,.3,0l5.666-6.25h.042a.392.392,0,0,1,.592,0l.591.629a.455.455,0,0,1,0,.63l-6.765,7.464a.392.392,0,0,1-.592,0Z" transform="translate(-468 -2082.007)" fill="#26650a"/>
</svg>
